<svg width="14" height="11" viewBox="0 0 14 11" fill="none" xmlns="http://www.w3.org/2000/svg">
<path d="M13.5 3.5C13.5 3.23478 13.3946 2.98043 13.2071 2.79289C13.0196 2.60536 12.7652 2.5 12.5 2.5H10.5L9 0.5H5L3.5 2.5H1.5C1.23478 2.5 0.98043 2.60536 0.792893 2.79289C0.605357 2.98043 0.5 3.23478 0.5 3.5V9.5C0.5 9.7652 0.605357 10.0196 0.792893 10.2071C0.98043 10.3946 1.23478 10.5 1.5 10.5H12.5C12.7652 10.5 13.0196 10.3946 13.2071 10.2071C13.3946 10.0196 13.5 9.7652 13.5 9.5V3.5Z" stroke="white" stroke-linecap="round" stroke-linejoin="round"/>
<path d="M7 8.25C8.24264 8.25 9.25 7.24264 9.25 6C9.25 4.75736 8.24264 3.75 7 3.75C5.75736 3.75 4.75 4.75736 4.75 6C4.75 7.24264 5.75736 8.25 7 8.25Z" stroke="white" stroke-linecap="round" stroke-linejoin="round"/>
</svg>
