<svg width="14" height="14" viewBox="0 0 14 14" fill="none" xmlns="http://www.w3.org/2000/svg">
<path d="M12.1015 13.5V10.6668C12.1015 9.24569 10.9495 8.09372 9.52844 8.09372H7.29364V3.9182C7.29364 3.25427 6.75542 2.71606 6.0915 2.71606C5.42757 2.71606 4.88936 3.25427 4.88936 3.9182L4.88935 9.39168L4.48847 9.46713C3.26956 9.69652 2.6895 11.1039 3.39276 12.1255L3.55445 12.3604L4.33792 13.5" stroke="black" stroke-linecap="round" stroke-linejoin="round"/>
<path d="M2.59749 4.93236C2.53611 4.6685 2.50366 4.39354 2.50366 4.11099C2.50366 2.1167 4.12036 0.5 6.11465 0.5C8.10895 0.5 9.72564 2.1167 9.72564 4.11099C9.72564 4.39354 9.69319 4.6685 9.63182 4.93236" stroke="black" stroke-linecap="round" stroke-linejoin="round"/>
</svg>
