<svg width="14" height="14" viewBox="0 0 14 14" fill="none" xmlns="http://www.w3.org/2000/svg">
<g clip-path="url(#clip0_2767_31189)">
<path d="M5 6.5C6.38071 6.5 7.5 5.38071 7.5 4C7.5 2.61929 6.38071 1.5 5 1.5C3.61929 1.5 2.5 2.61929 2.5 4C2.5 5.38071 3.61929 6.5 5 6.5Z" stroke="white" stroke-linecap="round" stroke-linejoin="round"/>
<path d="M5 8.5C2.51472 8.5 0.5 10.5147 0.5 13V13.5H9.5V13C9.5 10.5147 7.48528 8.5 5 8.5Z" stroke="white" stroke-linecap="round" stroke-linejoin="round"/>
<path d="M12.3284 6.15685C13.0786 5.40671 13.5 4.38929 13.5 3.32843C13.5 2.26756 13.0786 1.25015 12.3284 0.5" stroke="white" stroke-linecap="round" stroke-linejoin="round"/>
<path d="M10.5608 4.38914C10.8421 4.10784 11.0002 3.72631 11.0002 3.32848C11.0002 2.93066 10.8421 2.54913 10.5608 2.26782" stroke="white" stroke-linecap="round" stroke-linejoin="round"/>
</g>
<defs>
<clipPath id="clip0_2767_31189">
<rect width="14" height="14" fill="white"/>
</clipPath>
</defs>
</svg>
